<?xml version="1.0" encoding="utf-8"?>
<!-- Generator: Adobe Illustrator 23.0.3, SVG Export Plug-In . SVG Version: 6.00 Build 0)  -->
<svg version="1.1" id="Layer_1" xmlns="http://www.w3.org/2000/svg" xmlns:xlink="http://www.w3.org/1999/xlink" x="0px" y="0px"
	 viewBox="0 0 173 40" style="enable-background:new 0 0 173 40;" xml:space="preserve">
<style type="text/css">
	.st0{fill:#FFFFFF;}
</style>
<title>Logo peya es</title>
<desc>Created with Sketch.</desc>
<g>
	<g>
		<path class="st0" d="M102.5,11c-1.5,0-2.6,1.1-2.6,2.6c0,1.2,0.7,2,2,2c1.5,0,2.6-1.1,2.6-2.6C104.6,11.7,103.8,11,102.5,11z"/>
		<path class="st0" d="M98,11.6c-0.1-0.1-0.1-0.1-0.2-0.1h-3.2c-0.1,0-0.3,0.1-0.3,0.2c0,0-1.3,6.2-1.3,6.6
			c-0.8-1.4-2.4-2.3-4.4-2.3c-3.9,0-6.8,3.2-6.8,7.5c0,3.6,2.2,6,5.4,6c1.5,0,2.9-0.6,3.9-1.7c-0.1,0.3-0.1,0.6-0.2,1
			c0,0.1,0,0.2,0.1,0.2c0.1,0.1,0.1,0.1,0.2,0.1l3.2,0c0.1,0,0.3-0.1,0.3-0.2L98,11.9C98,11.8,98,11.7,98,11.6z M91.7,22.8
			c-0.1,0.5-0.2,0.9-0.4,1.3c-0.2,0.4-0.5,0.7-0.8,1c-0.3,0.3-0.6,0.5-1,0.7c-0.7,0.3-1.6,0.3-2.2,0c-0.3-0.1-0.6-0.3-0.8-0.5
			c-0.2-0.2-0.4-0.5-0.5-0.8c-0.1-0.3-0.2-0.7-0.1-1.1c0-0.5,0.1-1,0.3-1.4c0.2-0.4,0.4-0.8,0.8-1.2c0.3-0.3,0.7-0.6,1.1-0.8
			c0.4-0.2,0.9-0.3,1.3-0.3c0.4,0,0.8,0.1,1.1,0.2c0.3,0.2,0.6,0.4,0.8,0.6c0.2,0.3,0.4,0.6,0.4,1C91.8,21.9,91.8,22.3,91.7,22.8z"
			/>
		<path class="st0" d="M103.1,17.5h-3.3c-0.1,0-0.3,0.1-0.3,0.2l-2.3,11.2c0,0.1,0,0.2,0.1,0.2c0.1,0.1,0.1,0.1,0.2,0.1h3.3
			c0.1,0,0.3-0.1,0.3-0.2l2.3-11.2c0-0.1,0-0.2-0.1-0.2C103.2,17.5,103.1,17.5,103.1,17.5z"/>
		<path class="st0" d="M54.3,28.2c0.3-1.5,1-4.9,1-5c0.1,0,3.9,0,3.9,0c4.5,0,7.3-2.4,7.3-6.3c0-3.4-2.3-5.4-6.2-5.4h-6.7
			c-0.1,0-0.3,0.1-0.3,0.2l-3.4,17c0,0.1,0,0.2,0.1,0.2c0.1,0.1,0.1,0.1,0.2,0.1h1.3l1.7,0C53.2,29.1,54.1,29.1,54.3,28.2z
			 M59.4,19.6c0,0-3.2,0-3.3,0c0-0.1,0.9-4.3,0.9-4.4c0.2,0,3.1,0,3.1,0c1.5,0,2.3,0.7,2.3,1.9C62.3,18.7,61.3,19.6,59.4,19.6z"/>
		<path class="st0" d="M127.9,16.1c-4.4,0-7.6,3.1-7.6,7.5c0,3.7,2.5,6.1,6.5,6.1c4.4,0,7.6-3.1,7.6-7.5
			C134.3,18.5,131.8,16.1,127.9,16.1z M127,25.8c-1.7,0-2.7-0.9-2.7-2.5c0-2,1.4-3.4,3.3-3.4c1.7,0,2.7,0.9,2.7,2.5
			C130.3,24.4,128.9,25.8,127,25.8z"/>
		<path class="st0" d="M120.7,11.6c-0.1-0.1-0.1-0.1-0.2-0.1h-3.2c-0.1,0-0.3,0.1-0.3,0.2c0,0-1.3,6.2-1.3,6.6
			c-0.8-1.4-2.4-2.3-4.4-2.3c-3.9,0-6.8,3.2-6.8,7.5c0,3.6,2.2,6,5.4,6c1.5,0,2.9-0.6,3.9-1.7c-0.1,0.3-0.1,0.6-0.2,1
			c0,0.1,0,0.2,0.1,0.2c0.1,0.1,0.1,0.1,0.2,0.1l3.2,0c0.1,0,0.3-0.1,0.3-0.2l3.4-17.1C120.8,11.8,120.8,11.7,120.7,11.6z
			 M114.6,22.8c-0.1,0.5-0.2,0.9-0.4,1.3c-0.2,0.4-0.5,0.7-0.8,1c-0.3,0.3-0.6,0.5-1,0.7c-0.7,0.3-1.6,0.3-2.2,0
			c-0.3-0.1-0.6-0.3-0.8-0.5c-0.2-0.2-0.4-0.5-0.5-0.8c-0.1-0.3-0.2-0.7-0.1-1.1c0-0.5,0.1-1,0.3-1.4c0.2-0.4,0.4-0.8,0.8-1.2
			c0.3-0.3,0.7-0.6,1.1-0.8c0.4-0.2,0.9-0.3,1.3-0.3c0.4,0,0.8,0.1,1.1,0.2c0.3,0.2,0.6,0.4,0.8,0.6c0.2,0.3,0.4,0.6,0.4,1
			C114.7,21.9,114.7,22.3,114.6,22.8z"/>
		<path class="st0" d="M145,17c-1.7-0.8-3.4-1.1-5-1c-2.8,0.2-4.4,1.9-4.2,4.3c0.1,1.5,1,2.6,2.6,3.4l1.8,0.9
			c0.7,0.4,0.8,0.6,0.8,0.8c0,0.5-0.6,0.7-0.9,0.7c-1.1,0.1-2.4-0.3-3.9-1.2c-0.1,0-0.1-0.1-0.2,0c-0.1,0-0.1,0.1-0.2,0.1l-1.4,2.5
			c-0.1,0.1,0,0.3,0.1,0.4c1.8,1.2,3.8,1.7,5.8,1.6c3.1-0.3,4.7-1.9,4.5-4.5c-0.1-1.6-0.9-2.5-2.6-3.4l-1.6-0.8
			c-0.9-0.5-1-0.6-1-0.9c0-0.1,0-0.6,0.8-0.6c0.9-0.1,2,0.2,3.2,0.7c0.1,0,0.2,0,0.2,0c0.1,0,0.1-0.1,0.2-0.2l1.1-2.5
			C145.2,17.3,145.2,17.1,145,17z"/>
		<path class="st0" d="M162.5,12c-0.1-0.1-0.2-0.2-0.3-0.2h-4.6c-0.1,0-0.2,0.1-0.3,0.1c0,0-4.5,6.4-4.9,7.1c-0.1-0.6-2.3-7-2.3-7
			c0-0.1-0.2-0.2-0.3-0.2h-4c-0.1,0-0.2,0-0.3,0.1c-0.1,0.1-0.1,0.2,0,0.3l4.2,10.8l-1.3,6.3c0,0.1,0,0.2,0.1,0.3
			c0.1,0.1,0.1,0.1,0.2,0.1h3.2c0.4,0,0.8-0.3,0.9-0.7l1.1-5.8l8.3-10.8C162.6,12.2,162.6,12.1,162.5,12z"/>
		<path class="st0" d="M172.2,16.9c-0.1-0.1-0.1-0.1-0.2-0.1h-3.2c-0.1,0-0.2,0.1-0.3,0.2c0,0-0.1,0.6-0.2,1l0,0
			c-0.7-0.9-1.8-1.4-2.9-1.5c-1-0.1-2,0.1-2.9,0.5c-3.1,1.2-5.2,4.2-5.1,7.6c0,2.9,1.9,4.9,4.8,5c1.6,0.1,2.9-0.4,4.2-1.4
			c-0.1,0.3-0.1,0.7-0.2,1c0,0.1,0,0.2,0.1,0.2c0.1,0.1,0.1,0.1,0.2,0.1l3.2,0c0.1,0,0.2-0.1,0.3-0.2l2.4-12.2
			C172.3,17,172.3,17,172.2,16.9z M167.4,23.2c-0.1,0.4-0.2,0.9-0.4,1.2c-0.2,0.4-0.4,0.7-0.7,1c-0.3,0.3-0.6,0.5-1,0.6
			c-0.7,0.3-1.5,0.3-2.1,0c-0.3-0.1-0.5-0.3-0.7-0.5c-0.2-0.2-0.4-0.5-0.5-0.8c-0.1-0.3-0.1-0.7-0.1-1.1c0-0.5,0.1-0.9,0.3-1.4
			c0.2-0.4,0.4-0.8,0.7-1.1c0.3-0.3,0.7-0.6,1-0.8c0.4-0.2,0.8-0.3,1.3-0.3c0.4,0,0.7,0.1,1.1,0.2c0.3,0.1,0.6,0.3,0.8,0.6
			c0.2,0.3,0.3,0.6,0.4,1C167.4,22.3,167.4,22.7,167.4,23.2z"/>
		<path class="st0" d="M74.3,16c-4.3,0-7.5,3.1-7.5,7.5c0,3.7,2.5,6.1,6.6,6.1c1.8,0,3.4-0.5,5-1.5c0.1-0.1,0.2-0.3,0-0.4l-2-2.1
			c-0.1-0.1-0.2-0.1-0.3,0c-0.9,0.5-1.7,0.7-2.6,0.7c-1.9,0-2.9-0.8-3-2.3l9.1,0c0.1,0,0.3-0.1,0.3-0.2c0.2-0.9,0.3-1.6,0.3-2.3
			C80.2,18.1,78,16,74.3,16z M71,21.1c0.6-1.4,1.7-2.2,3.3-2.2c1.6,0,2.5,0.7,2.5,2.2C76.5,21.1,71.2,21.1,71,21.1z"/>
	</g>
	<path class="st0" d="M27.5,0.6H27l-2.1,0H1.4C1,0.6,0.7,0.9,0.7,1.3V5c0,4.1,2.9,6.4,8.2,6.4l18.6,0c2,0,3.6,1.6,3.6,3.6
		s-1.6,3.6-3.6,3.6h0H6.6c-0.3,0-0.6,0.2-0.6,0.5L1,38.6c-0.1,0.2,0,0.4,0.1,0.6c0.1,0.2,0.3,0.3,0.5,0.3h6.6c2.5,0,3.7-2.1,4-3.1
		l1.9-7.1h13.3c7.9,0,14.3-6.4,14.3-14.3C41.7,7,35.3,0.6,27.5,0.6z"/>
</g>
</svg>
